<svg width="100" height="120" viewBox="0 0 100 120" fill="none" xmlns="http://www.w3.org/2000/svg">
<path d="M24.332 13.7258C23.2805 12.9652 22.8806 11.73 23.0303 10.6301C23.1813 9.52118 23.9126 8.43519 25.2129 8.07635C50.2843 1.16047 65.8774 6.69051 74.834 16.9103C83.7111 27.0397 85.8408 41.5295 84.5654 52.1525C84.4801 52.863 84.2008 53.4805 83.7285 53.9152C83.2531 54.3527 82.6453 54.5439 82.0449 54.4963C80.8331 54.4001 79.8514 53.3961 79.6162 51.9943C78.4477 45.0267 76.3692 39.5039 72.5508 35.9133C77.3067 53.89 70.8529 77.7177 51.8945 100.006C50.9421 101.126 49.5411 101.267 48.46 100.768C47.3878 100.272 46.579 99.1274 46.7314 97.6955C51.8275 49.8257 38.5906 24.0391 24.332 13.7258Z" fill="#E54666" stroke="white" stroke-width="2"/>
</svg>
