<svg width="128" height="128" viewBox="0 0 128 128" fill="none" xmlns="http://www.w3.org/2000/svg">
<path d="M56.5 18.3301C61.141 15.6506 66.859 15.6506 71.5 18.3301L99.8013 34.6699C104.442 37.3494 107.301 42.3013 107.301 47.6603V80.3397C107.301 85.6987 104.442 90.6506 99.8013 93.3301L71.5 109.67C66.859 112.349 61.141 112.349 56.5 109.67L28.1987 93.3301C23.5577 90.6506 20.6987 85.6987 20.6987 80.3397V47.6603C20.6987 42.3013 23.5577 37.3494 28.1987 34.6699L56.5 18.3301Z" fill="#003D7C" stroke="#EF7B00" stroke-width="6"/>
<path d="M79.75 62.7766H48.25V49.5674H79.75M75.8125 78.6277C74.7682 78.6277 73.7667 78.2102 73.0283 77.4671C72.2898 76.7239 71.875 75.7159 71.875 74.665C71.875 73.614 72.2898 72.606 73.0283 71.8629C73.7667 71.1197 74.7682 70.7022 75.8125 70.7022C76.8568 70.7022 77.8583 71.1197 78.5967 71.8629C79.3352 72.606 79.75 73.614 79.75 74.665C79.75 75.7159 79.3352 76.7239 78.5967 77.4671C77.8583 78.2102 76.8568 78.6277 75.8125 78.6277ZM52.1875 78.6277C51.1432 78.6277 50.1417 78.2102 49.4033 77.4671C48.6648 76.7239 48.25 75.7159 48.25 74.665C48.25 73.614 48.6648 72.606 49.4033 71.8629C50.1417 71.1197 51.1432 70.7022 52.1875 70.7022C53.2318 70.7022 54.2333 71.1197 54.9717 71.8629C55.7102 72.606 56.125 73.614 56.125 74.665C56.125 75.7159 55.7102 76.7239 54.9717 77.4671C54.2333 78.2102 53.2318 78.6277 52.1875 78.6277ZM43 75.9859C43 78.3107 44.0237 80.3978 45.625 81.8508V86.5533C45.625 87.2539 45.9016 87.9259 46.3938 88.4213C46.8861 88.9168 47.5538 89.1951 48.25 89.1951H50.875C51.5712 89.1951 52.2389 88.9168 52.7312 88.4213C53.2234 87.9259 53.5 87.2539 53.5 86.5533V83.9114H74.5V86.5533C74.5 87.2539 74.7766 87.9259 75.2688 88.4213C75.7611 88.9168 76.4288 89.1951 77.125 89.1951H79.75C80.4462 89.1951 81.1139 88.9168 81.6062 88.4213C82.0984 87.9259 82.375 87.2539 82.375 86.5533V81.8508C83.9763 80.3978 85 78.3107 85 75.9859V49.5674C85 40.3209 75.6025 39 64 39C52.3975 39 43 40.3209 43 49.5674V75.9859Z" fill="white"/>
</svg>
